<?xml version="1.0" encoding="UTF-8" standalone="no"?>
<svg
   viewBox="0 0 1230.6145 253.76673"
   height="253.76672"
   width="1230.6145"
   xml:space="preserve"
   id="svg2"
   version="1.1"
   sodipodi:docname="SAT.svg"
   inkscape:version="1.1 (c68e22c387, 2021-05-23)"
   xmlns:inkscape="http://www.inkscape.org/namespaces/inkscape"
   xmlns:sodipodi="http://sodipodi.sourceforge.net/DTD/sodipodi-0.dtd"
   xmlns="http://www.w3.org/2000/svg"
   xmlns:svg="http://www.w3.org/2000/svg"
   xmlns:rdf="http://www.w3.org/1999/02/22-rdf-syntax-ns#"
   xmlns:cc="http://creativecommons.org/ns#"
   xmlns:dc="http://purl.org/dc/elements/1.1/"><sodipodi:namedview
     id="namedview84"
     pagecolor="#ffffff"
     bordercolor="#666666"
     borderopacity="1.0"
     inkscape:pageshadow="2"
     inkscape:pageopacity="0.0"
     inkscape:pagecheckerboard="0"
     showgrid="false"
     fit-margin-top="0"
     fit-margin-left="0"
     fit-margin-right="0"
     fit-margin-bottom="0"
     inkscape:zoom="0.56860135"
     inkscape:cx="662.15108"
     inkscape:cy="-134.54066"
     inkscape:window-width="1920"
     inkscape:window-height="1017"
     inkscape:window-x="1912"
     inkscape:window-y="-8"
     inkscape:window-maximized="1"
     inkscape:current-layer="svg2" /><metadata
     id="metadata8"><rdf:RDF><cc:Work
         rdf:about=""><dc:format>image/svg+xml</dc:format><dc:type
           rdf:resource="http://purl.org/dc/dcmitype/StillImage" /></cc:Work></rdf:RDF></metadata><defs
     id="defs6" /><g
     id="g1509"
     transform="matrix(4.8006493,0,0,4.8006493,-73.565806,-582.31791)"><path
       id="path16"
       style="fill:#231f20;fill-opacity:1;fill-rule:evenodd;stroke:none;stroke-width:0.133333"
       d="m 175.22,136.38387 h -31.63334 v 8.52134 h 10.644 v 16.112 h 10.436 v -16.112 H 175.22 v -8.52134" /><path
       id="path18"
       style="fill:#231f20;fill-opacity:1;fill-rule:evenodd;stroke:none;stroke-width:0.133333"
       d="M 147.84533,161.01667 136.116,136.46561 h -15.20147 l -12.1468,24.55106 c 0,0 12.77707,0.0688 12.9104,0 l 3.69893,-9.13386 c 0,0 6.9792,1.92293 9.56694,9.13386 z m -22.062,-10.23853 3.1068,-7.73493 2.3708,7.73493 z" /><path
       id="path20"
       style="fill:#231f20;fill-opacity:1;fill-rule:evenodd;stroke:none;stroke-width:0.133333"
       d="m 106.1984,136.94641 v 7.64053 c -0.16094,-0.20827 -0.64947,-0.38227 -1.138,-0.55573 -4.88854,-1.7364 -11.082802,-2.01187 -12.549469,-1.52547 -1.326533,0.4172 -1.605733,1.28547 -0.628133,1.84067 0.628133,0.38173 3.9604,0.90053 7.5208,1.73386 8.449462,1.94467 11.661462,5.24427 8.519332,10.10614 -2.58387,4.1672 -12.847866,6.598 -26.883332,4.09746 -0.837467,-0.13853 -1.057867,-0.51826 -2.8,-0.69173 v -7.9536 c 1.3932,0.24373 1.9516,0.52187 2.510933,0.72973 3.4912,1.4588 9.9916,2.39107 12.645333,2.114 1.9552,-0.174 2.7932,-1.0776 1.8156,-1.84066 -0.5584,-0.452 -4.4656,-0.86614 -7.817733,-1.5952 -8.728133,-1.91 -11.116133,-5.1052 -8.602533,-9.68907 2.024933,-3.71613 8.742133,-6.11253 19.7744,-5.45267 1.955732,0.10414 3.910932,0.34747 5.865602,0.65987 0.69853,0.10427 1.39693,0.2428 1.7672,0.38187" /></g><g
     id="g1504"
     transform="matrix(4.6314932,0,0,4.6314932,-460.15119,-329.55857)"
     style="fill:#00529e;fill-opacity:1"><path
       id="path22"
       style="fill:#00529e;fill-opacity:1;fill-rule:evenodd;stroke:none;stroke-width:0.133333"
       d="m 141.09866,125.94734 c 7.204,0 13.04534,-5.84067 13.04534,-13.046 0,-7.204 -5.84134,-13.045333 -13.04534,-13.045333 -7.20533,0 -13.046,5.841333 -13.046,13.045333 0,7.20533 5.84067,13.046 13.046,13.046" /><path
       id="path24"
       style="fill:#00529e;fill-opacity:1;fill-rule:evenodd;stroke:none;stroke-width:0.133333"
       d="m 112.39786,125.94734 c 7.2048,0 13.04587,-5.84067 13.04587,-13.046 0,-7.204 -5.84107,-13.045333 -13.04587,-13.045333 -7.20413,0 -13.045196,5.841333 -13.045196,13.045333 0,7.20533 5.841066,13.046 13.045196,13.046" /><path
       id="path26"
       style="fill:#00529e;fill-opacity:1;fill-rule:evenodd;stroke:none;stroke-width:0.133333"
       d="m 141.09866,97.248007 c 7.204,0 13.04534,-5.841333 13.04534,-13.046666 0,-7.204 -5.84134,-13.045333 -13.04534,-13.045333 -7.20533,0 -13.046,5.841333 -13.046,13.045333 0,7.205333 5.84067,13.046666 13.046,13.046666" /><path
       id="path28"
       style="fill:#00529e;fill-opacity:1;fill-rule:evenodd;stroke:none;stroke-width:0.133333"
       d="m 112.39786,97.248007 c 7.2048,0 13.04587,-5.841333 13.04587,-13.046666 0,-7.204 -5.84107,-13.045333 -13.04587,-13.045333 -7.20413,0 -13.045196,5.841333 -13.045196,13.045333 0,7.205333 5.841066,13.046666 13.045196,13.046666" /></g><g
     id="g1545"
     transform="matrix(3.9795634,0,0,3.9795634,251.57815,-445.94825)"><path
       id="path30"
       style="fill:#231f20;fill-opacity:1;fill-rule:evenodd;stroke:none;stroke-width:0.133333"
       d="M 17.621333,169.46361 H 17.3948 l -0.574,-1.56054 c -0.05307,-0.14626 -0.6536,-0.3468 -1.293734,-0.3468 -0.827066,0 -1.574,0.41347 -1.574,1.3068 0,2.02814 4.149067,1.44107 4.149067,4.2692 0,2.1084 -2.228133,2.6948 -3.428667,2.6948 -1.601066,0 -2.441693,-0.25306 -2.93492,-0.44013 l 0.07968,-2.30773 h 0.22708 l 0.560427,1.5208 c 0.106773,0.27973 0.987467,0.5068 1.387467,0.5068 1.000533,0 1.840666,-0.44014 1.840666,-1.374 0,-1.96094 -4.148973,-1.5208 -4.148973,-4.17547 0,-2.00107 1.640627,-2.72133 3.775507,-2.72133 0.600533,0 1.4276,0.13333 2.2412,0.33333 l -0.08027,2.29427" /><path
       id="path32"
       style="fill:#231f20;fill-opacity:1;fill-rule:evenodd;stroke:none;stroke-width:0.133333"
       d="m 22.197333,169.62401 c 0.9068,0 1.133866,0.8536 1.133866,1.60053 v 0.21347 c -0.414,0.0136 -1.054133,0.0937 -1.854666,0.0937 h -0.559867 v -0.0801 c 0,-0.7604 0.359867,-1.8276 1.280667,-1.8276 z m 2.614666,4.73533 c -0.440133,0.29373 -1.054133,0.45427 -1.601066,0.45427 -1.454134,0 -2.294267,-1.4948 -2.294267,-2.48134 v -0.24013 h 3.547867 c 0.840666,0 0.974,0 0.974,-0.49373 0,-1.66774 -1.507334,-2.5348 -3.014534,-2.5348 -1.974533,0 -3.534933,1.414 -3.534933,3.402 0,1.8672 1.320267,3.30786 3.228133,3.30786 1.0536,0 2.1208,-0.37346 2.921334,-1.05373 l -0.226534,-0.3604" /><path
       id="path34"
       style="fill:#231f20;fill-opacity:1;fill-rule:evenodd;stroke:none;stroke-width:0.133333"
       d="m 31.015066,171.03854 h -0.3468 c -0.159867,-0.4412 -0.387067,-0.66773 -0.880267,-0.66773 -0.7604,0 -1.2276,0.61413 -1.2276,1.6412 0,0.46666 0.0536,2.84106 0.186534,2.93493 0.280666,0.2 0.533733,0.33333 0.9208,0.4796 v 0.18707 c -0.614134,-0.0537 -1.2808,-0.1068 -2.054667,-0.1068 -0.693333,0 -1.333867,0.0531 -1.947467,0.1068 v -0.18707 l 0.894267,-0.42653 c 0.1464,-0.0667 0.213067,-0.64067 0.213067,-2.05467 0,-2.8948 -0.04013,-3.0016 -0.4136,-3.148 l -0.693734,-0.28013 v -0.18694 c 0.253734,0 1.560934,0 2.467734,-0.10626 0.240133,-0.0271 0.480666,-0.0537 0.507333,-0.0537 l -0.02667,1.1604 h 0.02667 c 0.306667,-0.4932 0.933867,-1.26706 1.840533,-1.26706 0.187067,0 0.360934,0 0.533867,0.0531 v 1.92187" /><path
       id="path36"
       style="fill:#231f20;fill-opacity:1;fill-rule:evenodd;stroke:none;stroke-width:0.133333"
       d="m 36.110932,169.22401 c 0.4932,0.0531 0.986934,0.10626 1.4808,0.10626 0.4,0 0.8,-0.0532 1.2004,-0.10626 v 0.1864 l -0.306666,0.18693 c -0.2136,0.13333 -0.346934,0.2136 -0.533334,0.54693 -1.120933,1.97454 -2.107866,3.97507 -2.761466,5.6292 h -0.801067 c -0.733333,-1.8672 -1.586933,-3.7084 -2.387466,-5.56306 -0.07973,-0.1864 -0.2,-0.41307 -0.387067,-0.53334 l -0.413467,-0.26666 v -0.1864 c 0.640534,0.0531 1.293734,0.10626 1.9344,0.10626 0.586933,0 1.173867,-0.0532 1.760933,-0.10626 v 0.1864 l -0.6672,0.28026 c -0.146933,0.0667 -0.186533,0.1468 -0.186533,0.22654 0,0.0667 0.02653,0.17346 0.1068,0.40053 l 1.240667,3.16147 1.3208,-2.81467 c 0.253066,-0.5604 0.266666,-0.64053 0.266666,-0.7072 0,-0.0803 -0.08027,-0.2 -0.2536,-0.28027 l -0.6136,-0.26666 v -0.1864" /><path
       id="path38"
       style="fill:#231f20;fill-opacity:1;fill-rule:evenodd;stroke:none;stroke-width:0.133333"
       d="m 38.031732,169.33027 c 0.2532,0 1.5604,0 2.467734,-0.10626 0.240133,-0.0271 0.480266,-0.0537 0.507333,-0.0537 -0.04013,0.60054 -0.08027,1.96147 -0.08027,2.8152 0,0.4932 0.0532,2.8676 0.186534,2.96147 0.280133,0.2 0.533866,0.33333 0.920266,0.4796 v 0.18707 c -0.6136,-0.0537 -1.280266,-0.1068 -2.054133,-0.1068 -0.6932,0 -1.333867,0.0531 -1.947467,0.1068 v -0.18707 l 0.893734,-0.42653 c 0.146933,-0.0667 0.2136,-0.64067 0.2136,-2.05467 0,-2.52133 -0.0536,-3.0016 -0.240134,-3.08133 l -0.8672,-0.3468 z m 1.960934,-3.02813 c 0.5604,0 1.014133,0.45413 1.014133,1.014 0,0.5604 -0.453733,1.0136 -1.014133,1.0136 -0.5604,0 -1.013467,-0.4532 -1.013467,-1.0136 0,-0.55987 0.453067,-1.014 1.013467,-1.014" /><path
       id="path40"
       style="fill:#231f20;fill-opacity:1;fill-rule:evenodd;stroke:none;stroke-width:0.133333"
       d="m 47.569732,171.51827 h -0.1864 l -0.6672,-1.56093 c -0.09373,-0.21307 -0.3604,-0.2532 -0.6672,-0.2532 -1.227066,0 -1.773866,0.93333 -1.773866,2.06773 0,1.37347 0.439466,3.12134 2.147333,3.12134 0.4536,0 0.9068,-0.17347 1.294266,-0.3604 l 0.2,0.33386 c -0.9208,0.65307 -1.440666,0.9068 -2.668266,0.9068 -1.747333,0 -3.0812,-1.38706 -3.0812,-3.1344 0,-2.188 1.7208,-3.57546 3.828667,-3.57546 0.626533,0 1.227066,0.17333 1.814533,0.3468 l -0.240667,2.10786" /><path
       id="path42"
       style="fill:#231f20;fill-opacity:1;fill-rule:evenodd;stroke:none;stroke-width:0.133333"
       d="m 48.196932,169.33027 c 0.2536,0 1.5604,0 2.4676,-0.10626 0.240133,-0.0271 0.480267,-0.0537 0.5068,-0.0537 -0.0396,0.60054 -0.0796,1.96147 -0.0796,2.8152 0,0.4932 0.05307,2.8676 0.1864,2.96147 0.280267,0.2 0.533867,0.33333 0.920267,0.4796 v 0.18707 c -0.613467,-0.0537 -1.280134,-0.1068 -2.054134,-0.1068 -0.6932,0 -1.333866,0.0531 -1.947333,0.1068 v -0.18707 l 0.8932,-0.42653 c 0.147333,-0.0667 0.213467,-0.64067 0.213467,-2.05467 0,-2.52133 -0.05307,-3.0016 -0.2396,-3.08133 l -0.867067,-0.3468 z m 1.960933,-3.02813 c 0.5604,0 1.013467,0.45413 1.013467,1.014 0,0.5604 -0.453067,1.0136 -1.013467,1.0136 -0.560533,0 -1.014133,-0.4532 -1.014133,-1.0136 0,-0.55987 0.4536,-1.014 1.014133,-1.014" /><path
       id="path44"
       style="fill:#231f20;fill-opacity:1;fill-rule:evenodd;stroke:none;stroke-width:0.133333"
       d="m 55.546932,169.62401 c 1.400933,0 1.5208,1.94733 1.5208,2.96146 0,0.9468 -0.119867,2.62814 -1.440667,2.62814 -1.254133,0 -1.454666,-1.90787 -1.454666,-2.8152 0,-0.8536 0.0536,-2.7744 1.374533,-2.7744 z m 0.120267,-0.5604 c -2.028134,0 -3.6016,1.33426 -3.6016,3.44213 0,2.10733 1.427066,3.26773 3.481333,3.26773 1.9744,0 3.628533,-1.25373 3.628533,-3.30786 0,-2.17494 -1.4004,-3.402 -3.508266,-3.402" /><path
       id="path46"
       style="fill:#231f20;fill-opacity:1;fill-rule:evenodd;stroke:none;stroke-width:0.133333"
       d="m 68.353598,172.30521 c 0,0.92026 -0.186933,2.74786 -1.454133,2.74786 -1.107333,0 -1.5344,-1.17386 -1.5344,-2.85466 0,-1.02707 0.266667,-2.49427 1.560933,-2.49427 1.293734,0 1.4276,1.65373 1.4276,2.60107 z m 1.7204,-4.00214 c 0,-1.13373 0.02707,-1.8676 0.09373,-2.2676 -0.02653,0 -1.0276,0.1604 -2.548,0.1604 h -0.373334 v 0.1864 l 0.666667,0.24014 c 0.306667,0.12026 0.373867,0.2136 0.373867,2.414 v 0.748 c -0.3604,-0.41414 -0.947334,-0.7208 -1.588,-0.7208 -1.9344,0 -3.4416,1.54786 -3.4416,3.44213 0,1.69373 1.254133,3.26773 3.028133,3.26773 0.947333,0 1.7208,-0.39946 2.188,-1.22706 h 0.02707 l -0.04013,1.0672 c 0.519867,-0.0537 1.146934,-0.1068 1.440134,-0.1068 0.347333,0 0.933866,0.0531 1.374533,0.1068 v -0.18707 l -0.853733,-0.39947 c -0.173467,-0.0801 -0.186934,-0.22706 -0.227067,-0.7208 -0.02653,-0.4 -0.120267,-4.02866 -0.120267,-4.82866 v -1.17454" /><path
       id="path48"
       style="fill:#231f20;fill-opacity:1;fill-rule:evenodd;stroke:none;stroke-width:0.133333"
       d="m 74.863065,169.62401 c 0.907733,0 1.134266,0.8536 1.134266,1.60053 v 0.21347 c -0.413466,0.0136 -1.054133,0.0937 -1.854666,0.0937 h -0.559867 v -0.0801 c 0,-0.7604 0.359867,-1.8276 1.280267,-1.8276 z m 2.615066,4.73533 c -0.440133,0.29373 -1.054133,0.45427 -1.601066,0.45427 -1.4536,0 -2.294267,-1.4948 -2.294267,-2.48134 v -0.24013 h 3.547867 c 0.8412,0 0.974533,0 0.974533,-0.49373 0,-1.66774 -1.507333,-2.5348 -3.015067,-2.5348 -1.974533,0 -3.534933,1.414 -3.534933,3.402 0,1.8672 1.3208,3.30786 3.228133,3.30786 1.054134,0 2.121334,-0.37346 2.921334,-1.05373 l -0.226534,-0.3604" /><path
       id="path50"
       style="fill:#231f20;fill-opacity:1;fill-rule:evenodd;stroke:none;stroke-width:0.133333"
       d="m 87.923464,172.07867 h -2.641199 l 1.374,-2.93493 z m 4.535867,3.34787 -0.814,-0.33333 c -0.2,-0.0796 -0.4,-0.46667 -0.6536,-1.00054 -0.6136,-1.28013 -2.188133,-4.80253 -3.1084,-7.3364 h -1.146933 c -1.107733,2.53387 -2.428,5.24214 -3.615067,7.59014 -0.293733,0.58693 -0.387466,0.6536 -0.614,0.7468 l -0.8672,0.33333 v 0.18707 c 0.614,-0.0537 1.214,-0.1068 1.814534,-0.1068 0.653733,0 1.293733,0.0531 1.9344,0.1068 v -0.18707 l -0.907334,-0.31973 c -0.253066,-0.0932 -0.2932,-0.14694 -0.2932,-0.25374 0,-0.10666 0.2532,-0.82706 0.3464,-1.04 l 0.3468,-0.85426 h 3.388533 l 0.387067,1.1204 c 0.06667,0.20053 0.2,0.614 0.2,0.7208 0,0.0797 -0.04013,0.11973 -0.226667,0.18693 l -1.107733,0.4396 v 0.18707 c 0.814,-0.0537 1.6276,-0.1068 2.4416,-0.1068 0.826667,0 1.6672,0.0531 2.4948,0.1068 v -0.18707" /><path
       id="path52"
       style="fill:#231f20;fill-opacity:1;fill-rule:evenodd;stroke:none;stroke-width:0.133333"
       d="m 97.354664,172.30521 c 0,0.92026 -0.1864,2.74786 -1.454133,2.74786 -1.107333,0 -1.533867,-1.17386 -1.533867,-2.85466 0,-1.02707 0.2672,-2.49427 1.5604,-2.49427 1.294267,0 1.4276,1.65373 1.4276,2.60107 z m 1.7208,-4.00214 c 0,-1.13373 0.0272,-1.8676 0.09387,-2.2676 -0.0272,0 -1.0276,0.1604 -2.548,0.1604 h -0.374 v 0.1864 l 0.667733,0.24014 c 0.306267,0.12026 0.373467,0.2136 0.373467,2.414 v 0.748 c -0.3604,-0.41414 -0.947333,-0.7208 -1.587467,-0.7208 -1.9344,0 -3.442266,1.54786 -3.442266,3.44213 0,1.69373 1.254266,3.26773 3.028133,3.26773 0.947467,0 1.721467,-0.39946 2.188133,-1.22706 h 0.02653 l -0.0396,1.0672 c 0.519733,-0.0537 1.1468,-0.1068 1.440133,-0.1068 0.3468,0 0.933867,0.0531 1.37387,0.1068 l 5.3e-4,-0.18707 -0.854133,-0.39947 c -0.173467,-0.0801 -0.1864,-0.22706 -0.226534,-0.7208 -0.02653,-0.4 -0.1204,-4.02866 -0.1204,-4.82866 v -1.17454" /><path
       id="path54"
       style="fill:#231f20;fill-opacity:1;fill-rule:evenodd;stroke:none;stroke-width:0.133333"
       d="m 100.46306,175.42654 0.7072,-0.33333 c 0.33334,-0.15987 0.4,-0.37347 0.4,-2.14787 0,-2.85467 -0.0536,-3.0016 -0.33333,-3.12133 l -0.77387,-0.3068 v -0.18694 c 0.2,0 1.50774,0 2.41454,-0.10626 0.24013,-0.0271 0.48026,-0.0537 0.5068,-0.0537 l -0.0265,1.1604 h 0.0265 c 0.5604,-0.81346 1.56093,-1.26706 2.50773,-1.26706 0.97453,-0.0131 1.56093,0.30666 1.9344,1.26706 0.6136,-0.75986 1.53493,-1.28013 2.5084,-1.26706 1.26667,0 2.05467,0.66706 2.05467,1.92133 0,0.68013 -0.0136,1.14733 -0.0136,1.58693 0,2.26827 0.0667,2.36147 0.37346,2.5084 l 0.73387,0.34627 v 0.18707 c -0.614,-0.0537 -1.25413,-0.1068 -1.94787,-0.1068 -0.65426,0 -1.32093,0.0531 -1.9876,0.1068 v -0.18707 l 0.62667,-0.2932 c 0.20053,-0.0932 0.2932,-0.15987 0.32027,-0.33333 0.0932,-0.52027 0.0932,-1.30787 0.0932,-1.8412 v -1.20054 c 0,-1.1468 -0.35987,-1.65413 -1.17347,-1.65413 -0.8672,0 -1.54787,0.57347 -1.54787,1.574 v 1.28067 c 0,1.74746 0.0401,1.98813 0.2536,2.09426 l 0.78707,0.37347 v 0.18707 c -0.6672,-0.0537 -1.33387,-0.1068 -1.9876,-0.1068 -0.5468,0 -1.214,0.0531 -1.88067,0.1068 v -0.18707 l 0.62654,-0.2932 c 0.20053,-0.0932 0.29373,-0.15987 0.3204,-0.33333 0.0937,-0.52027 0.0937,-1.30787 0.0937,-1.8412 v -1.20054 c 0,-1.1468 -0.36093,-1.65413 -1.174,-1.65413 -0.8672,0 -1.54787,0.57347 -1.54787,1.574 v 1.28067 c 0,1.74746 0.04,1.98813 0.2536,2.09426 l 0.78694,0.37347 v 0.18707 c -0.6672,-0.0537 -1.3344,-0.1068 -1.98747,-0.1068 -0.69373,0 -1.33387,0.0531 -1.94787,0.1068 v -0.18707" /><path
       id="path56"
       style="fill:#231f20;fill-opacity:1;fill-rule:evenodd;stroke:none;stroke-width:0.133333"
       d="m 113.52346,169.33027 c 0.2536,0 1.5604,0 2.46774,-0.10626 0.24,-0.0271 0.48013,-0.0537 0.50666,-0.0537 -0.0395,0.60054 -0.0796,1.96147 -0.0796,2.8152 0,0.4932 0.0531,2.8676 0.1864,2.96147 0.28027,0.2 0.53387,0.33333 0.9208,0.4796 v 0.18707 c -0.614,-0.0537 -1.28066,-0.1068 -2.0552,-0.1068 -0.6932,0 -1.33386,0.0531 -1.9468,0.1068 v -0.18707 l 0.89374,-0.42653 c 0.1464,-0.0667 0.21306,-0.64067 0.21306,-2.05467 0,-2.52133 -0.0532,-3.0016 -0.24013,-3.08133 l -0.86667,-0.3468 z m 1.9604,-3.02813 c 0.5604,0 1.014,0.45413 1.014,1.014 0,0.5604 -0.4536,1.0136 -1.014,1.0136 -0.55986,0 -1.0136,-0.4532 -1.0136,-1.0136 0,-0.55987 0.45374,-1.014 1.0136,-1.014" /><path
       id="path58"
       style="fill:#231f20;fill-opacity:1;fill-rule:evenodd;stroke:none;stroke-width:0.133333"
       d="m 117.83173,175.42654 0.70733,-0.33333 c 0.3328,-0.15987 0.4,-0.37347 0.4,-2.14787 0,-2.85467 -0.0531,-3.0016 -0.33333,-3.12133 l -0.774,-0.3068 v -0.18694 c 0.2,0 1.50733,0 2.41467,-0.10626 0.24,-0.0271 0.48013,-0.0537 0.5072,-0.0537 l -0.0271,1.1604 h 0.0271 c 0.56,-0.81346 1.5604,-1.26706 2.50786,-1.26706 1.2672,0 2.05414,0.66706 2.05414,1.92133 0,0.68013 -0.0135,1.14733 -0.0135,1.58693 0,2.26827 0.0672,2.36147 0.37387,2.5084 l 0.73333,0.34627 v 0.18707 c -0.61347,-0.0537 -1.2536,-0.1068 -1.94787,-0.1068 -0.65306,0 -1.32026,0.0531 -1.98693,0.1068 v -0.18707 l 0.62653,-0.2932 c 0.20054,-0.0932 0.29374,-0.15987 0.32027,-0.33333 0.0937,-0.52027 0.0937,-1.30787 0.0937,-1.8412 v -1.20054 c 0,-1.1468 -0.44053,-1.65413 -1.24106,-1.65413 -0.8672,0 -1.54747,0.57347 -1.54747,1.574 v 1.28067 c 0,1.74746 0.0401,1.98813 0.25373,2.09426 l 0.78694,0.37347 v 0.18707 c -0.6672,-0.0537 -1.3344,-0.1068 -1.988,-0.1068 -0.69374,0 -1.33387,0.0531 -1.94747,0.1068 v -0.18707" /><path
       id="path60"
       style="fill:#231f20;fill-opacity:1;fill-rule:evenodd;stroke:none;stroke-width:0.133333"
       d="m 126.44946,169.33027 c 0.2536,0 1.56094,0 2.46827,-0.10626 0.24013,-0.0271 0.48013,-0.0537 0.50627,-0.0537 -0.0396,0.60054 -0.0797,1.96147 -0.0797,2.8152 0,0.4932 0.0536,2.8676 0.18694,2.96147 0.27973,0.2 0.53333,0.33333 0.9204,0.4796 v 0.18707 c -0.6136,-0.0537 -1.2808,-0.1068 -2.05467,-0.1068 -0.69387,0 -1.33333,0.0531 -1.94747,0.1068 v -0.18707 l 0.89374,-0.42653 c 0.14693,-0.0667 0.2136,-0.64067 0.2136,-2.05467 0,-2.52133 -0.0532,-3.0016 -0.24014,-3.08133 l -0.8672,-0.3468 z m 1.96094,-3.02813 c 0.5604,0 1.0136,0.45413 1.0136,1.014 0,0.5604 -0.4532,1.0136 -1.0136,1.0136 -0.55987,0 -1.014,-0.4532 -1.014,-1.0136 0,-0.55987 0.45413,-1.014 1.014,-1.014" /><path
       id="path62"
       style="fill:#231f20;fill-opacity:1;fill-rule:evenodd;stroke:none;stroke-width:0.133333"
       d="m 131.06506,173.69267 h 0.18707 l 0.51973,1.3604 c 0.0532,0.0939 0.6136,0.16054 0.974,0.16054 0.5468,0 1.30747,-0.18654 1.30747,-0.8808 0,-1.2672 -3.10853,-1.13387 -3.10853,-3.12134 0,-1.18746 1.00053,-2.14786 2.4952,-2.14786 0.6,0 1.46666,0.1604 1.76,0.26666 l -0.0787,1.6812 h -0.188 l -0.52,-1.10733 c -0.04,-0.0801 -0.37333,-0.2 -0.77333,-0.2 -0.54734,0 -1.0676,0.21307 -1.0676,0.84013 0,1.34734 3.1076,1.10734 3.1076,3.22867 -0.04,1.7468 -1.93334,2.00053 -3.29454,2.00053 -0.62666,0 -1.1204,-0.0661 -1.48026,-0.15986 l 0.15986,-1.92094" /><path
       id="path64"
       style="fill:#231f20;fill-opacity:1;fill-rule:evenodd;stroke:none;stroke-width:0.133333"
       d="m 136.13333,169.41041 h 0.0147 c 0.38666,0 1.90666,-0.66667 2.33466,-1.814 h 0.65334 c 0,0.41346 -0.0267,0.84 -0.0267,1.34733 v 0.38653 h 1.82667 v 0.5604 h -1.82667 v 3.98854 c 0,0.58693 0.18667,1.014 0.6,1.014 0.49333,0 1.04133,-0.52027 1.36,-0.8536 l 0.36133,0.31973 c -0.81333,0.94747 -1.45466,1.41413 -2.74933,1.41413 -0.89333,0 -1.50667,-0.64013 -1.50667,-1.5208 0,-0.74693 0.0667,-1.73386 0.0667,-2.8948 v -1.4672 h -1.108 v -0.48026" /><path
       id="path66"
       style="fill:#231f20;fill-opacity:1;fill-rule:evenodd;stroke:none;stroke-width:0.133333"
       d="m 146.83333,171.03854 h -0.348 c -0.15867,-0.4412 -0.38667,-0.66773 -0.88,-0.66773 -0.76,0 -1.22667,0.61413 -1.22667,1.6412 0,0.46666 0.052,2.84106 0.18667,2.93493 0.28,0.2 0.53333,0.33333 0.92,0.4796 v 0.18707 c -0.61333,-0.0537 -1.28,-0.1068 -2.05467,-0.1068 -0.69333,0 -1.33333,0.0531 -1.94666,0.1068 v -0.18707 l 0.89333,-0.42653 c 0.14667,-0.0667 0.21333,-0.64067 0.21333,-2.05467 0,-2.8948 -0.04,-3.0016 -0.41333,-3.148 l -0.69333,-0.28013 v -0.18694 c 0.252,0 1.56,0 2.46666,-0.10626 0.24134,-0.0271 0.48,-0.0537 0.508,-0.0537 l -0.028,1.1604 h 0.028 c 0.30667,-0.4932 0.93334,-1.26706 1.84,-1.26706 0.18667,0 0.36134,0 0.53467,0.0531 v 1.92187" /><path
       id="path68"
       style="fill:#231f20;fill-opacity:1;fill-rule:evenodd;stroke:none;stroke-width:0.133333"
       d="m 151.248,172.27814 v 1.09427 c 0,0.4536 -0.4,1.4412 -1.24134,1.4412 -0.55866,0 -0.93333,-0.44067 -0.93333,-0.9876 0,-1.13387 0.93333,-1.54787 1.88133,-1.54787 z m -3.108,-1.31987 c 0.46666,-0.6004 1.02666,-0.93426 1.78666,-0.93426 0.77467,0 1.32134,0.4 1.32134,1.18746 v 0.5068 h -0.34667 c -1.52133,0 -3.69467,0.37387 -3.69467,2.24107 0,1.16093 0.86667,1.81413 1.908,1.81413 0.892,0 1.64,-0.41306 2.14667,-1.08026 h 0.0267 l -0.04,0.9204 c 0.49333,-0.0537 0.98666,-0.1068 1.48,-0.1068 0.44133,0 0.88133,0.0531 1.32133,0.1068 v -0.18707 l -0.82667,-0.39947 c -0.22666,-0.10733 -0.25333,-0.20053 -0.25333,-1.14786 0,-0.4932 0.0667,-1.65427 0.0667,-2.80107 0,-1.4672 -1.21467,-2.01453 -2.52134,-2.01453 -1.17466,0 -2.148,0.58693 -2.88133,1.4676 l 0.50667,0.42706" /><path
       id="path70"
       style="fill:#231f20;fill-opacity:1;fill-rule:evenodd;stroke:none;stroke-width:0.133333"
       d="M 159.59866,171.51827 H 159.412 l -0.66667,-1.56093 c -0.0933,-0.21307 -0.36,-0.2532 -0.66667,-0.2532 -1.228,0 -1.77466,0.93333 -1.77466,2.06773 0,1.37347 0.44,3.12134 2.148,3.12134 0.45333,0 0.90666,-0.17347 1.29333,-0.3604 l 0.20133,0.33386 c -0.92133,0.65307 -1.44133,0.9068 -2.668,0.9068 -1.748,0 -3.08266,-1.38706 -3.08266,-3.1344 0,-2.188 1.72133,-3.57546 3.82933,-3.57546 0.62667,0 1.22667,0.17333 1.81333,0.3468 l -0.24,2.10786" /><path
       id="path72"
       style="fill:#231f20;fill-opacity:1;fill-rule:evenodd;stroke:none;stroke-width:0.133333"
       d="m 160.22666,169.33027 c 0.252,0 1.56,0 2.46667,-0.10626 0.24133,-0.0271 0.48,-0.0537 0.508,-0.0537 -0.04,0.60054 -0.08,1.96147 -0.08,2.8152 0,0.4932 0.052,2.8676 0.18667,2.96147 0.28,0.2 0.53333,0.33333 0.92,0.4796 v 0.18707 c -0.61334,-0.0537 -1.28,-0.1068 -2.05467,-0.1068 -0.69333,0 -1.33333,0.0531 -1.94667,0.1068 v -0.18707 l 0.89334,-0.42653 c 0.14666,-0.0667 0.21333,-0.64067 0.21333,-2.05467 0,-2.52133 -0.0533,-3.0016 -0.24,-3.08133 l -0.86667,-0.3468 z m 1.96134,-3.02813 c 0.56,0 1.01333,0.45413 1.01333,1.014 0,0.5604 -0.45333,1.0136 -1.01333,1.0136 -0.56134,0 -1.01467,-0.4532 -1.01467,-1.0136 0,-0.55987 0.45333,-1.014 1.01467,-1.014" /><path
       id="path74"
       style="fill:#231f20;fill-opacity:1;fill-rule:evenodd;stroke:none;stroke-width:0.133333"
       d="m 167.84266,169.62401 c 1.40134,0 1.52134,1.94733 1.52134,2.96146 0,0.9468 -0.12,2.62814 -1.44134,2.62814 -1.25333,0 -1.45333,-1.90787 -1.45333,-2.8152 0,-0.8536 0.0533,-2.7744 1.37333,-2.7744 z m -0.98666,-1.1876 h 0.81333 l 2.028,-1.33374 c 0.18667,-0.10626 0.33333,-0.2532 0.33333,-0.49386 0,-0.35987 -0.25333,-0.64054 -0.57333,-0.64054 -0.49333,0 -0.70667,0.29374 -1,0.64054 z m 1.10666,0.6272 c -2.02666,0 -3.60133,1.33426 -3.60133,3.44213 0,2.10733 1.428,3.26773 3.48133,3.26773 1.97467,0 3.62934,-1.25373 3.62934,-3.30786 0,-2.17494 -1.40134,-3.402 -3.50934,-3.402" /><path
       id="path76"
       style="fill:#231f20;fill-opacity:1;fill-rule:evenodd;stroke:none;stroke-width:0.133333"
       d="m 171.552,175.42654 0.70666,-0.33333 c 0.33334,-0.15987 0.4,-0.37347 0.4,-2.14787 0,-2.85467 -0.0533,-3.0016 -0.33333,-3.12133 l -0.77333,-0.3068 v -0.18694 c 0.2,0 1.508,0 2.41466,-0.10626 0.24,-0.0271 0.48,-0.0537 0.50667,-0.0537 l -0.0267,1.1604 h 0.0267 c 0.56,-0.81346 1.56,-1.26706 2.508,-1.26706 1.26667,0 2.05467,0.66706 2.05467,1.92133 0,0.68013 -0.0147,1.14733 -0.0147,1.58693 0,2.26827 0.068,2.36147 0.37333,2.5084 l 0.73467,0.34627 v 0.18707 c -0.61333,-0.0537 -1.25333,-0.1068 -1.948,-0.1068 -0.65333,0 -1.32,0.0531 -1.988,0.1068 v -0.18707 l 0.628,-0.2932 c 0.2,-0.0932 0.29333,-0.15987 0.32,-0.33333 0.0933,-0.52027 0.0933,-1.30787 0.0933,-1.8412 v -1.20054 c 0,-1.1468 -0.44,-1.65413 -1.24133,-1.65413 -0.86667,0 -1.54667,0.57347 -1.54667,1.574 v 1.28067 c 0,1.74746 0.04,1.98813 0.25334,2.09426 l 0.78666,0.37347 v 0.18707 c -0.66666,-0.0537 -1.33333,-0.1068 -1.98666,-0.1068 -0.69467,0 -1.33467,0.0531 -1.948,0.1068 v -0.18707" /><path
       id="path78"
       style="fill:#231f20;fill-opacity:1;fill-rule:evenodd;stroke:none;stroke-width:0.133333"
       d="m 185.22533,175.42654 1.09333,-0.42653 c 0.308,-0.12027 0.36134,-0.2136 0.38667,-0.4672 0.0413,-0.26667 0.068,-0.88014 0.068,-1.58747 v -3.22813 c 0,-0.57347 -0.04,-1.14694 -0.04,-1.70734 H 185.652 c -1.228,0 -1.268,0 -1.44,0.42654 l -0.40134,1.0412 H 183.624 v -2.42814 c 1.24133,0.0532 2.988,0.10627 4.16266,0.10627 1.38667,0 2.77467,-0.0531 4.16134,-0.10627 v 2.42814 h -0.18667 l -0.4,-1.0412 c -0.17333,-0.42654 -0.21333,-0.42654 -1.44,-0.42654 H 188.84 c -0.0133,0.5604 -0.04,1.13387 -0.04,1.70734 v 2.82813 c 0,1.214 0.04,1.96093 0.12,2.22813 0.028,0.0932 0.13333,0.17347 0.48,0.2932 l 0.948,0.35987 v 0.18707 c -0.96,-0.0537 -1.76134,-0.1068 -2.56134,-0.1068 -0.80133,0 -1.60133,0.0531 -2.56133,0.1068 v -0.18707" /><path
       id="path80"
       style="fill:#231f20;fill-opacity:1;fill-rule:evenodd;stroke:none;stroke-width:0.133333"
       d="m 197.272,171.03854 h -0.348 c -0.16,-0.4412 -0.38534,-0.66773 -0.88,-0.66773 -0.76,0 -1.22667,0.61413 -1.22667,1.6412 0,0.46666 0.0533,2.84106 0.18667,2.93493 0.28,0.2 0.53333,0.33333 0.92,0.4796 v 0.18707 c -0.61334,-0.0537 -1.28,-0.1068 -2.05467,-0.1068 -0.69333,0 -1.33333,0.0531 -1.948,0.1068 v -0.18707 l 0.89467,-0.42653 c 0.14666,-0.0667 0.21333,-0.64067 0.21333,-2.05467 0,-2.8948 -0.04,-3.0016 -0.41333,-3.148 l -0.69467,-0.28013 v -0.18694 c 0.25467,0 1.56133,0 2.46933,-0.10626 0.24,-0.0271 0.48,-0.0537 0.50667,-0.0537 l -0.0267,1.1604 h 0.0267 c 0.30667,-0.4932 0.93333,-1.26706 1.84133,-1.26706 0.18534,0 0.35867,0 0.53334,0.0531 v 1.92187" /><path
       id="path82"
       style="fill:#231f20;fill-opacity:1;fill-rule:evenodd;stroke:none;stroke-width:0.133333"
       d="m 197.512,169.33027 c 0.252,0 1.56,0 2.46666,-0.10626 0.24,-0.0271 0.48133,-0.0537 0.50667,-0.0537 -0.04,0.60054 -0.0787,1.96147 -0.0787,2.8152 0,0.4932 0.0533,2.8676 0.18667,2.96147 0.28,0.2 0.53333,0.33333 0.92,0.4796 v 0.18707 c -0.61334,-0.0537 -1.28,-0.1068 -2.05333,-0.1068 -0.69467,0 -1.33467,0.0531 -1.948,0.1068 v -0.18707 l 0.89333,-0.42653 c 0.14667,-0.0667 0.21333,-0.64067 0.21333,-2.05467 0,-2.52133 -0.0533,-3.0016 -0.24,-3.08133 l -0.86666,-0.3468 z m 1.96,-3.02813 c 0.56133,0 1.01333,0.45413 1.01333,1.014 0,0.5604 -0.452,1.0136 -1.01333,1.0136 -0.56,0 -1.01334,-0.4532 -1.01334,-1.0136 0,-0.55987 0.45334,-1.014 1.01334,-1.014" /><path
       id="path84"
       style="fill:#231f20;fill-opacity:1;fill-rule:evenodd;stroke:none;stroke-width:0.133333"
       d="m 206.64933,172.66561 c 0,0.93386 -0.0933,2.62813 -1.40134,2.62813 -0.6,0 -0.94666,-0.38693 -1.05333,-0.574 -0.14667,-0.73333 -0.16,-2.0676 -0.16,-2.9348 0,-1.13387 0.24,-2.0808 1.21333,-2.0808 1.28134,0 1.40134,1.89427 1.40134,2.96147 z m -5.416,-6.28334 0.57333,0.22654 c 0.4,0.14746 0.44133,1.148 0.44133,3.38853 v 2.82813 c 0,0.8 -0.0413,1.574 -0.13333,2.37507 0.86667,0.39947 1.81333,0.57293 3.12133,0.57293 1.98667,0 3.52134,-1.3204 3.52134,-3.46826 0,-1.90734 -1.16134,-3.2416 -2.948,-3.2416 -0.70667,0 -1.33467,0.24 -1.77467,0.6536 v -1.34747 c 0,-0.6 0.0267,-1.9208 0.12,-2.33427 -0.0267,0 -1.02667,0.1604 -2.548,0.1604 h -0.37333 v 0.1864" /><path
       id="path86"
       style="fill:#231f20;fill-opacity:1;fill-rule:evenodd;stroke:none;stroke-width:0.133333"
       d="m 216.25466,174.47974 c 0,0.3468 0.0533,0.54733 0.28,0.64053 l 0.70667,0.30627 v 0.18707 c -0.52,-0.0537 -1.04134,-0.1068 -1.57467,-0.1068 -0.4,0 -0.78667,0.0531 -1.17333,0.1068 l 0.04,-1.14747 h -0.0267 c -0.588,0.76093 -1.508,1.30733 -2.52133,1.30733 -1.24,0 -2.028,-0.51986 -2.028,-1.82706 0,-0.69427 0.04,-1.25427 0.04,-1.89427 0,-0.84067 -0.0267,-1.66827 -0.12,-1.98813 -0.04,-0.12027 -0.10667,-0.21347 -0.25334,-0.26667 l -0.73333,-0.28013 v -0.18694 c 0.2,0 1.50667,0 2.41467,-0.10626 0.24,-0.0271 0.48,-0.0537 0.50666,-0.0537 -0.0133,0.49374 -0.0267,1.01414 -0.0267,1.52094 v 2.65466 c 0,0.89374 0.4,1.46774 1.22666,1.46774 0.85467,0 1.45467,-0.72094 1.45467,-1.8948 v -0.86667 c 0,-0.84067 -0.0267,-1.66827 -0.12,-1.98813 -0.04,-0.12027 -0.10667,-0.21347 -0.25333,-0.26667 l -0.73334,-0.28013 v -0.18694 c 0.2,0 1.50667,0 2.41334,-0.10626 0.24133,-0.0271 0.48133,-0.0537 0.508,-0.0537 -0.0133,0.49374 -0.0267,1.01414 -0.0267,1.52094 v 3.78853" /><path
       id="path88"
       style="fill:#231f20;fill-opacity:1;fill-rule:evenodd;stroke:none;stroke-width:0.133333"
       d="m 217.45466,169.41041 h 0.0133 c 0.38667,0 1.908,-0.66667 2.33467,-1.814 h 0.65333 c 0,0.41346 -0.0267,0.84 -0.0267,1.34733 v 0.38653 h 1.828 v 0.5604 h -1.828 v 3.98854 c 0,0.58693 0.18666,1.014 0.6,1.014 0.49466,0 1.04133,-0.52027 1.36133,-0.8536 l 0.36,0.31973 c -0.81333,0.94747 -1.45467,1.41413 -2.748,1.41413 -0.89333,0 -1.508,-0.64013 -1.508,-1.5208 0,-0.74693 0.0667,-1.73386 0.0667,-2.8948 v -1.4672 h -1.10667 v -0.48026" /><path
       id="path90"
       style="fill:#231f20;fill-opacity:1;fill-rule:evenodd;stroke:none;stroke-width:0.133333"
       d="m 226.97999,172.27814 v 1.09427 c 0,0.4536 -0.40133,1.4412 -1.24133,1.4412 -0.56,0 -0.93333,-0.44067 -0.93333,-0.9876 0,-1.13387 0.93333,-1.54787 1.88,-1.54787 z m -3.108,-1.31987 c 0.46667,-0.6004 1.02667,-0.93426 1.78667,-0.93426 0.77333,0 1.32133,0.4 1.32133,1.18746 v 0.5068 h -0.348 c -1.52,0 -3.69466,0.37387 -3.69466,2.24107 0,1.16093 0.868,1.81413 1.908,1.81413 0.89333,0 1.64,-0.41306 2.148,-1.08026 h 0.0253 l -0.0387,0.9204 c 0.49334,-0.0537 0.98667,-0.1068 1.48,-0.1068 0.44,0 0.88,0.0531 1.32134,0.1068 v -0.18707 l -0.828,-0.39947 c -0.22667,-0.10733 -0.25334,-0.20053 -0.25334,-1.14786 0,-0.4932 0.0667,-1.65427 0.0667,-2.80107 0,-1.4672 -1.21333,-2.01453 -2.52133,-2.01453 -1.17334,0 -2.14667,0.58693 -2.88134,1.4676 l 0.508,0.42706" /><path
       id="path92"
       style="fill:#231f20;fill-opacity:1;fill-rule:evenodd;stroke:none;stroke-width:0.133333"
       d="m 234.97066,171.03854 h -0.34667 c -0.16,-0.4412 -0.388,-0.66773 -0.88133,-0.66773 -0.76,0 -1.22667,0.61413 -1.22667,1.6412 0,0.46666 0.0533,2.84106 0.18667,2.93493 0.28,0.2 0.53333,0.33333 0.92,0.4796 v 0.18707 c -0.61333,-0.0537 -1.28,-0.1068 -2.05333,-0.1068 -0.69467,0 -1.33467,0.0531 -1.948,0.1068 v -0.18707 l 0.89333,-0.42653 c 0.14667,-0.0667 0.21333,-0.64067 0.21333,-2.05467 0,-2.8948 -0.04,-3.0016 -0.41333,-3.148 l -0.69333,-0.28013 v -0.18694 c 0.252,0 1.56,0 2.468,-0.10626 0.24,-0.0271 0.48,-0.0537 0.50666,-0.0537 l -0.0267,1.1604 h 0.0267 c 0.30667,-0.4932 0.93334,-1.26706 1.84134,-1.26706 0.18666,0 0.35866,0 0.53333,0.0531 v 1.92187" /><path
       id="path94"
       style="fill:#231f20;fill-opacity:1;fill-rule:evenodd;stroke:none;stroke-width:0.133333"
       d="m 235.20933,169.33027 c 0.25466,0 1.56133,0 2.46933,-0.10626 0.24,-0.0271 0.48,-0.0537 0.50667,-0.0537 -0.04,0.60054 -0.08,1.96147 -0.08,2.8152 0,0.4932 0.0533,2.8676 0.18666,2.96147 0.28,0.2 0.53334,0.33333 0.92,0.4796 v 0.18707 c -0.61333,-0.0537 -1.28133,-0.1068 -2.05466,-0.1068 -0.69334,0 -1.33334,0.0531 -1.948,0.1068 v -0.18707 l 0.89466,-0.42653 c 0.14667,-0.0667 0.21334,-0.64067 0.21334,-2.05467 0,-2.52133 -0.0533,-3.0016 -0.24,-3.08133 l -0.868,-0.3468 z m 1.96266,-3.02813 c 0.55867,0 1.01334,0.45413 1.01334,1.014 0,0.5604 -0.45467,1.0136 -1.01334,1.0136 -0.56133,0 -1.01466,-0.4532 -1.01466,-1.0136 0,-0.55987 0.45333,-1.014 1.01466,-1.014" /><path
       id="path96"
       style="fill:#231f20;fill-opacity:1;fill-rule:evenodd;stroke:none;stroke-width:0.133333"
       d="m 243.21466,172.27814 v 1.09427 c 0,0.4536 -0.4,1.4412 -1.24133,1.4412 -0.56,0 -0.93334,-0.44067 -0.93334,-0.9876 0,-1.13387 0.93334,-1.54787 1.88134,-1.54787 z m -3.108,-1.31987 c 0.46667,-0.6004 1.02667,-0.93426 1.78667,-0.93426 0.77333,0 1.32133,0.4 1.32133,1.18746 v 0.5068 h -0.348 c -1.52,0 -3.69467,0.37387 -3.69467,2.24107 0,1.16093 0.86667,1.81413 1.908,1.81413 0.89334,0 1.64,-0.41306 2.148,-1.08026 h 0.0267 l -0.04,0.9204 c 0.49333,-0.0537 0.98667,-0.1068 1.48,-0.1068 0.44,0 0.88,0.0531 1.32133,0.1068 v -0.18707 l -0.828,-0.39947 c -0.22666,-0.10733 -0.252,-0.20053 -0.252,-1.14786 0,-0.4932 0.0653,-1.65427 0.0653,-2.80107 0,-1.4672 -1.21334,-2.01453 -2.52134,-2.01453 -1.17333,0 -2.14666,0.58693 -2.88133,1.4676 l 0.508,0.42706" /></g></svg>
